<mxfile host="app.diagrams.net" modified="2023-04-23T06:30:32.606Z" agent="Mozilla/5.0 (Windows NT 10.0; Win64; x64) AppleWebKit/537.36 (KHTML, like Gecko) Chrome/112.0.0.0 Safari/537.36" version="21.2.1" etag="0RegBkanV7b3LbFT_ehW" type="github">
  <diagram name="第 1 页" id="nnTXE8aStebGgGXZ9mRK">
    <mxGraphModel>
      <root>
        <mxCell id="0" />
        <mxCell id="1" parent="0" />
      </root>
    </mxGraphModel>
  </diagram>
</mxfile>
